<?xml version="1.0" encoding="utf-8"?>
<svg version="1.1" xmlns="http://www.w3.org/2000/svg" x="0px" y="0px" width="160px" height="44px" viewBox="0 0 160 44" enable-background="new 0 0 160 44" xml:space="preserve">
	<g id="Content">
		<path fill="#10497E" d="M163,44H23C10.85,44,1,34.15,1,22l0,0C1,9.85,10.85,0,23,0h140V44z"/>
		<rect x="33.186" y="7" fill="none" width="120.785" height="45.333"/>
		<text transform="matrix(1 0 0 1 73.3535 16.73)">
			<tspan x="0" y="0" fill="#FFFFFF" font-family="'IskoolaPota'" font-size="14">MCEA</tspan>
			<tspan x="-38.106" y="19.4" fill="#FFFFFF" font-family="'IskoolaPota'" font-size="22">C</tspan>
			<tspan x="-23.433" y="19.4" fill="#FFFFFF" font-family="'IskoolaPota'" font-size="18">ONTRIBUTE</tspan>
		</text>
		<g>
			<path fill-rule="evenodd" clip-rule="evenodd" fill="#FFFFFF" d="M13.248,24.135c-0.43-0.861-0.894-1.793-1.359-2.723
				c-0.659-1.314-0.707-2.647-0.044-3.963c0.889-1.768,1.811-3.519,2.731-5.271c0.383-0.729,1.059-1.125,1.778-1.447
				c1.34-0.599,2.766-0.91,4.199-1.17c2.489-0.453,4.962-0.965,7.291-1.987c1.044-0.458,2.053-0.997,3.081-1.49
				c0.262-0.126,0.546-0.208,0.807-0.335c0.728-0.355,1.39-0.179,1.967,0.298c0.408,0.337,0.804,0.722,1.098,1.157
				c1.003,1.482,1.924,3.017,2.328,4.788c0.118,0.515,0.127,1.061,0.125,1.593c-0.001,0.481-0.282,0.837-0.683,1.1
				c-0.599,0.392-1.213,0.766-1.785,1.195c-1.151,0.864-1.74,2.135-2.345,3.384c-0.536,1.107-1.281,2.022-2.401,2.557
				c-0.862,0.412-1.763,0.745-2.65,1.104c-0.179,0.072-0.371,0.117-0.56,0.158c-1.528,0.326-2.805,1.093-3.962,2.132
				c-1.483,1.333-3.184,2.321-5.141,2.781c-0.555,0.13-1.17,0.176-1.729,0.083c-1.291-0.217-1.961-1.382-1.651-2.697
				c0.27-1.146,1.002-1.979,1.851-2.732c0.947-0.841,2.072-1.395,3.179-1.983c0.579-0.307,1.153-0.631,1.695-0.999
				c0.712-0.481,1.216-1.15,1.521-1.956c0.2-0.528,0.101-0.839-0.343-1.177c-0.348-0.265-0.699-0.525-1.057-0.775
				c-0.067-0.047-0.181-0.057-0.267-0.043c-0.827,0.13-1.654,0.264-2.479,0.414c-0.12,0.022-0.267,0.114-0.326,0.217
				c-0.512,0.879-1.126,1.676-1.874,2.365c-0.136,0.125-0.162,0.225-0.081,0.403c0.179,0.397,0.313,0.815,0.484,1.216
				c0.097,0.229,0.044,0.369-0.149,0.523c-0.496,0.394-1.005,0.778-1.443,1.231C14.417,22.745,13.836,23.462,13.248,24.135z"/>
			<path fill-rule="evenodd" clip-rule="evenodd" fill="#FFFFFF" d="M20.099,28.196c1.522,1.929,1.086,5.015-0.909,6.532
				c-2.242,1.705-5.405,1.282-7.021-0.971c-1.495-2.084-1.251-4.831,0.913-6.601c0.26,0.816,0.779,1.395,1.564,1.719
				c0.722,0.298,1.477,0.379,2.25,0.312C18.036,29.087,19.106,28.757,20.099,28.196z"/>
		</g>
		<path fill="#10497E" d="M17.598,30.866c-0.166-0.146-0.349-0.265-0.551-0.359c-0.201-0.094-0.398-0.179-0.59-0.255v-1.174
			c-0.174-0.003-0.346-0.013-0.511-0.036v0.988c-0.179-0.085-0.325-0.184-0.436-0.295c-0.112-0.112-0.168-0.262-0.168-0.45
			c0-0.145,0.019-0.264,0.051-0.364c-0.274-0.081-0.519-0.197-0.74-0.33c-0.101,0.125-0.198,0.252-0.258,0.389
			c-0.076,0.172-0.114,0.337-0.114,0.494c0,0.318,0.051,0.583,0.151,0.795c0.101,0.213,0.23,0.391,0.39,0.534
			c0.159,0.144,0.337,0.262,0.534,0.355c0.197,0.094,0.394,0.179,0.591,0.255v1.92c-0.139-0.009-0.283-0.034-0.433-0.074
			c-0.149-0.041-0.296-0.088-0.439-0.145c-0.144-0.056-0.276-0.116-0.399-0.181c-0.124-0.065-0.225-0.125-0.306-0.178l-0.295,0.92
			c0.13,0.067,0.26,0.129,0.389,0.185c0.13,0.056,0.265,0.103,0.406,0.141s0.292,0.068,0.453,0.091
			c0.162,0.022,0.336,0.034,0.524,0.034c0.018,0,0.034-0.001,0.047-0.003c0.014-0.002,0.032-0.003,0.054-0.003v0.658h0.511v-0.718
			c0.264-0.058,0.501-0.151,0.711-0.279c0.21-0.127,0.388-0.274,0.534-0.439c0.146-0.166,0.257-0.345,0.336-0.537
			c0.078-0.193,0.117-0.385,0.117-0.578c0-0.327-0.051-0.599-0.154-0.816S17.764,31.011,17.598,30.866z M17.004,32.94
			c-0.056,0.136-0.129,0.225-0.218,0.265c-0.049,0.022-0.1,0.041-0.151,0.057c-0.051,0.016-0.111,0.028-0.178,0.037v-1.672
			c0.188,0.09,0.34,0.191,0.457,0.306c0.116,0.114,0.174,0.267,0.174,0.46C17.088,32.622,17.06,32.804,17.004,32.94z"/>
	</g>
</svg>
